<svg viewBox="0 0 10000 10000" xmlns="http://www.w3.org/2000/svg">
<path d="M0,0 l10000,0 l0,10000 l-10000,0 z" fill="white"/>
<path d="M4291,8668 l99,0 l0,1290 l-99,0 z" fill="#fe00ff" stroke="black" stroke-width="5"/>
<path d="M0,6090 l524,0 l0,3910 l-524,0 z" fill="#9b00ff" stroke="black" stroke-width="5"/>
<path d="M972,4927 l1807,0 l0,316 l-1807,0 z" fill="#ff00fe" stroke="black" stroke-width="5"/>
<path d="M582,1091 l2194,0 l0,732 l-2194,0 z" fill="#fe00ff" stroke="black" stroke-width="5"/>
<path d="M1928,380 l2141,0 l0,710 l-2141,0 z" fill="#fe00ff" stroke="black" stroke-width="5"/>
<path d="M6369,5679 l201,0 l0,3608 l-201,0 z" fill="#fe00ff" stroke="black" stroke-width="5"/>
<path d="M6737,2 l856,0 l0,2608 l-856,0 z" fill="#ff00fe" stroke="black" stroke-width="5"/>
<path d="M582,5244 l2100,0 l0,1162 l-2100,0 z" fill="#ce00ff" stroke="black" stroke-width="5"/>
<path d="M7904,6877 l2096,0 l0,1021 l-2096,0 z" fill="#fe00ff" stroke="black" stroke-width="5"/>
<path d="M5692,464 l182,0 l0,169 l-182,0 z" fill="#ff00fe" stroke="black" stroke-width="5"/>
<path d="M2227,1824 l1895,0 l0,1394 l-1895,0 z" fill="#7200ff" stroke="black" stroke-width="5"/>
<path d="M544,9298 l558,0 l0,298 l-558,0 z" fill="#ff00fe" stroke="black" stroke-width="5"/>
<path d="M6767,4133 l3233,0 l0,1254 l-3233,0 z" fill="#fc00ff" stroke="black" stroke-width="5"/>
<path d="M2544,8087 l2177,0 l0,140 l-2177,0 z" fill="#fe00ff" stroke="black" stroke-width="5"/>
<path d="M6670,8475 l63,0 l0,119 l-63,0 z" fill="#ff00fe" stroke="black" stroke-width="5"/>
<path d="M3399,3372 l764,0 l0,2869 l-764,0 z" fill="#ea00ff" stroke="black" stroke-width="5"/>
<path d="M4164,4446 l669,0 l0,1795 l-669,0 z" fill="#fe00ff" stroke="black" stroke-width="5"/>
<path d="M9345,9763 l474,0 l0,175 l-474,0 z" fill="#fe00ff" stroke="black" stroke-width="5"/>
<path d="M1821,382 l106,0 l0,549 l-106,0 z" fill="#ff00fe" stroke="black" stroke-width="5"/>
<path d="M5563,4484 l227,0 l0,5513 l-227,0 z" fill="#ff00fe" stroke="black" stroke-width="5"/>
<path d="M6621,2613 l786,0 l0,1052 l-786,0 z" fill="#ff00fe" stroke="black" stroke-width="5"/>
<path d="M2040,1967 l186,0 l0,933 l-186,0 z" fill="#ff00fe" stroke="black" stroke-width="5"/>
<path d="M5966,5388 l4031,0 l0,278 l-4031,0 z" fill="#ff00fe" stroke="black" stroke-width="5"/>
<path d="M4732,6472 l830,0 l0,3528 l-830,0 z" fill="#fe00ff" stroke="black" stroke-width="5"/>
<path d="M1104,7541 l732,0 l0,2459 l-732,0 z" fill="#ff00fe" stroke="black" stroke-width="5"/>
<path d="M2788,3374 l610,0 l0,2867 l-610,0 z" fill="#ff00fe" stroke="black" stroke-width="5"/>
<path d="M7018,6877 l885,0 l0,2410 l-885,0 z" fill="#fe00ff" stroke="black" stroke-width="5"/>
<path d="M525,7545 l578,0 l0,1752 l-578,0 z" fill="#ff00fe" stroke="black" stroke-width="5"/>
<path d="M5647,2219 l967,0 l0,2264 l-967,0 z" fill="#fe00ff" stroke="black" stroke-width="5"/>
<path d="M2548,8233 l1741,0 l0,1764 l-1741,0 z" fill="#ff00fe" stroke="black" stroke-width="5"/>
<path d="M5868,4820 l97,0 l0,2109 l-97,0 z" fill="#ff00fe" stroke="black" stroke-width="5"/>
<path d="M6942,6164 l75,0 l0,3071 l-75,0 z" fill="#fe00ff" stroke="black" stroke-width="5"/>
<path d="M4834,4446 l728,0 l0,2025 l-728,0 z" fill="#b700ff" stroke="black" stroke-width="5"/>
<path d="M5675,634 l1061,0 l0,1581 l-1061,0 z" fill="#fe00ff" stroke="black" stroke-width="5"/>
<path d="M2777,1091 l2897,0 l0,732 l-2897,0 z" fill="#8b00ff" stroke="black" stroke-width="5"/>
<path d="M0,380 l581,0 l0,5709 l-581,0 z" fill="#fd00ff" stroke="black" stroke-width="5"/>
<path d="M4164,2471 l1482,0 l0,1974 l-1482,0 z" fill="#b200ff" stroke="black" stroke-width="5"/>
<path d="M4123,1824 l1523,0 l0,646 l-1523,0 z" fill="#fe00ff" stroke="black" stroke-width="5"/>
<path d="M8239,260 l1408,0 l0,2789 l-1408,0 z" fill="#ff00fe" stroke="black" stroke-width="5"/>
<path d="M7408,3050 l2592,0 l0,1082 l-2592,0 z" fill="#6d00ff" stroke="black" stroke-width="5"/>
<path d="M4070,0 l1604,0 l0,1090 l-1604,0 z" fill="#3000ff" stroke="black" stroke-width="5"/>
<path d="M7905,7899 l2095,0 l0,694 l-2095,0 z" fill="#ff00fe" stroke="black" stroke-width="5"/>
<path d="M525,6407 l2157,0 l0,1133 l-2157,0 z" fill="#f600ff" stroke="black" stroke-width="5"/>
<path d="M2683,6242 l2048,0 l0,1844 l-2048,0 z" fill="#fd00ff" stroke="black" stroke-width="5"/>
<path d="M6316,9288 l1481,0 l0,100 l-1481,0 z" fill="#fe00ff" stroke="black" stroke-width="5"/>
<path d="M582,3219 l3581,0 l0,152 l-3581,0 z" fill="#fe00ff" stroke="black" stroke-width="5"/>
<path d="M8566,9839 l140,0 l0,122 l-140,0 z" fill="#fe00ff" stroke="black" stroke-width="5"/>
<path d="M7031,6649 l2163,0 l0,227 l-2163,0 z" fill="#ff00fe" stroke="black" stroke-width="5"/>
<path d="M0,0 l4069,0 l0,379 l-4069,0 z" fill="#2b00ff" stroke="black" stroke-width="5"/>
<path d="M668,4295 l300,0 l0,934 l-300,0 z" fill="#ff00fe" stroke="black" stroke-width="5"/>
<path d="M6627,3669 l139,0 l0,1714 l-139,0 z" fill="#fe00ff" stroke="black" stroke-width="5"/>
<path d="M1837,7541 l705,0 l0,2458 l-705,0 z" fill="#fe00ff" stroke="black" stroke-width="5"/>
<path d="M4305,9790 l60,0 l0,60 l-60,0 z" fill="green"/>
<path d="M4335,9820 l5.5,-507" stroke="black" stroke-width="5"/>
<path d="M29,8198 l60,0 l0,60 l-60,0 z" fill="green"/>
<path d="M59,8228 l203,-183" stroke="black" stroke-width="5"/>
<path d="M1828,5212 l60,0 l0,60 l-60,0 z" fill="green"/>
<path d="M1858,5242 l17.5,-157" stroke="black" stroke-width="5"/>
<path d="M2338,1087 l60,0 l0,60 l-60,0 z" fill="green"/>
<path d="M2368,1117 l-689,340" stroke="black" stroke-width="5"/>
<path d="M2477,530 l60,0 l0,60 l-60,0 z" fill="green"/>
<path d="M2507,560 l491.5,175" stroke="black" stroke-width="5"/>
<path d="M6503,7679 l60,0 l0,60 l-60,0 z" fill="green"/>
<path d="M6533,7709 l-63.5,-226" stroke="black" stroke-width="5"/>
<path d="M6710,860 l60,0 l0,60 l-60,0 z" fill="green"/>
<path d="M6740,890 l425,416" stroke="black" stroke-width="5"/>
<path d="M1438,5634 l60,0 l0,60 l-60,0 z" fill="green"/>
<path d="M1468,5664 l164,161" stroke="black" stroke-width="5"/>
<path d="M8266,7240 l60,0 l0,60 l-60,0 z" fill="green"/>
<path d="M8296,7270 l656,117.5" stroke="black" stroke-width="5"/>
<path d="M5680,548 l60,0 l0,60 l-60,0 z" fill="green"/>
<path d="M5710,578 l73,-29.5" stroke="black" stroke-width="5"/>
<path d="M3214,2300 l60,0 l0,60 l-60,0 z" fill="green"/>
<path d="M3244,2330 l-69.5,191" stroke="black" stroke-width="5"/>
<path d="M969,9268 l60,0 l0,60 l-60,0 z" fill="green"/>
<path d="M999,9298 l-176,149" stroke="black" stroke-width="5"/>
<path d="M8352,4995 l60,0 l0,60 l-60,0 z" fill="green"/>
<path d="M8382,5025 l1.5,-265" stroke="black" stroke-width="5"/>
<path d="M3698,8130 l60,0 l0,60 l-60,0 z" fill="green"/>
<path d="M3728,8160 l-95.5,-3" stroke="black" stroke-width="5"/>
<path d="M6687,8480 l60,0 l0,60 l-60,0 z" fill="green"/>
<path d="M6717,8510 l-15.5,24.5" stroke="black" stroke-width="5"/>
<path d="M3421,5497 l60,0 l0,60 l-60,0 z" fill="green"/>
<path d="M3451,5527 l330,-720.5" stroke="black" stroke-width="5"/>
<path d="M4653,5254 l60,0 l0,60 l-60,0 z" fill="green"/>
<path d="M4683,5284 l-184.5,59.5" stroke="black" stroke-width="5"/>
<path d="M9611,9823 l60,0 l0,60 l-60,0 z" fill="green"/>
<path d="M9641,9853 l-59,-2.5" stroke="black" stroke-width="5"/>
<path d="M1890,569 l60,0 l0,60 l-60,0 z" fill="green"/>
<path d="M1920,599 l-46,57.5" stroke="black" stroke-width="5"/>
<path d="M5533,5909 l60,0 l0,60 l-60,0 z" fill="green"/>
<path d="M5563,5939 l113.5,1301.5" stroke="black" stroke-width="5"/>
<path d="M7376,3428 l60,0 l0,60 l-60,0 z" fill="green"/>
<path d="M7406,3458 l-392,-319" stroke="black" stroke-width="5"/>
<path d="M2195,2424 l60,0 l0,60 l-60,0 z" fill="green"/>
<path d="M2225,2454 l-92,-20.5" stroke="black" stroke-width="5"/>
<path d="M8434,5358 l60,0 l0,60 l-60,0 z" fill="green"/>
<path d="M8464,5388 l-482.5,139" stroke="black" stroke-width="5"/>
<path d="M4758,6442 l60,0 l0,60 l-60,0 z" fill="green"/>
<path d="M4788,6472 l359,1764" stroke="black" stroke-width="5"/>
<path d="M1420,8645 l60,0 l0,60 l-60,0 z" fill="green"/>
<path d="M1450,8675 l20,95.5" stroke="black" stroke-width="5"/>
<path d="M3367,5448 l60,0 l0,60 l-60,0 z" fill="green"/>
<path d="M3397,5478 l-304,-670.5" stroke="black" stroke-width="5"/>
<path d="M7349,8003 l60,0 l0,60 l-60,0 z" fill="green"/>
<path d="M7379,8033 l81.5,49" stroke="black" stroke-width="5"/>
<path d="M913,8220 l60,0 l0,60 l-60,0 z" fill="green"/>
<path d="M943,8250 l-129,171" stroke="black" stroke-width="5"/>
<path d="M5617,3479 l60,0 l0,60 l-60,0 z" fill="green"/>
<path d="M5647,3509 l483.5,-158" stroke="black" stroke-width="5"/>
<path d="M3184,9289 l60,0 l0,60 l-60,0 z" fill="green"/>
<path d="M3214,9319 l204.5,-204" stroke="black" stroke-width="5"/>
<path d="M5838,5905 l60,0 l0,60 l-60,0 z" fill="green"/>
<path d="M5868,5935 l48.5,-60.5" stroke="black" stroke-width="5"/>
<path d="M6986,8195 l60,0 l0,60 l-60,0 z" fill="green"/>
<path d="M7016,8225 l-36.5,-525.5" stroke="black" stroke-width="5"/>
<path d="M5185,5736 l60,0 l0,60 l-60,0 z" fill="green"/>
<path d="M5215,5766 l-17,-307.5" stroke="black" stroke-width="5"/>
<path d="M5645,1095 l60,0 l0,60 l-60,0 z" fill="green"/>
<path d="M5675,1125 l530.5,299.5" stroke="black" stroke-width="5"/>
<path d="M4404,1456 l60,0 l0,60 l-60,0 z" fill="green"/>
<path d="M4434,1486 l-208.5,-29" stroke="black" stroke-width="5"/>
<path d="M103,4817 l60,0 l0,60 l-60,0 z" fill="green"/>
<path d="M133,4847 l157.5,-1612.5" stroke="black" stroke-width="5"/>
<path d="M5093,3770 l60,0 l0,60 l-60,0 z" fill="green"/>
<path d="M5123,3800 l-218,-342" stroke="black" stroke-width="5"/>
<path d="M4410,1963 l60,0 l0,60 l-60,0 z" fill="green"/>
<path d="M4440,1993 l444.5,154" stroke="black" stroke-width="5"/>
<path d="M9015,3018 l60,0 l0,60 l-60,0 z" fill="green"/>
<path d="M9045,3048 l-102,-1393.5" stroke="black" stroke-width="5"/>
<path d="M8960,3194 l60,0 l0,60 l-60,0 z" fill="green"/>
<path d="M8990,3224 l-286,367" stroke="black" stroke-width="5"/>
<path d="M5146,511 l60,0 l0,60 l-60,0 z" fill="green"/>
<path d="M5176,541 l-304,4" stroke="black" stroke-width="5"/>
<path d="M8111,7869 l60,0 l0,60 l-60,0 z" fill="green"/>
<path d="M8141,7899 l811.5,347" stroke="black" stroke-width="5"/>
<path d="M1695,6898 l60,0 l0,60 l-60,0 z" fill="green"/>
<path d="M1725,6928 l-121.5,45.5" stroke="black" stroke-width="5"/>
<path d="M3880,6602 l60,0 l0,60 l-60,0 z" fill="green"/>
<path d="M3910,6632 l-203,532" stroke="black" stroke-width="5"/>
<path d="M7096,9259 l60,0 l0,60 l-60,0 z" fill="green"/>
<path d="M7126,9289 l-69.5,49" stroke="black" stroke-width="5"/>
<path d="M3748,3247 l60,0 l0,60 l-60,0 z" fill="green"/>
<path d="M3778,3277 l-1405.5,18" stroke="black" stroke-width="5"/>
<path d="M8606,9837 l60,0 l0,60 l-60,0 z" fill="green"/>
<path d="M8636,9867 l0,33" stroke="black" stroke-width="5"/>
<path d="M7896,6845 l60,0 l0,60 l-60,0 z" fill="green"/>
<path d="M7926,6875 l186.5,-112.5" stroke="black" stroke-width="5"/>
<path d="M2478,44 l60,0 l0,60 l-60,0 z" fill="green"/>
<path d="M2508,74 l-473.5,115.5" stroke="black" stroke-width="5"/>
<path d="M935,4992 l60,0 l0,60 l-60,0 z" fill="green"/>
<path d="M965,5022 l-147,-260" stroke="black" stroke-width="5"/>
<path d="M6633,4025 l60,0 l0,60 l-60,0 z" fill="green"/>
<path d="M6663,4055 l33.5,471" stroke="black" stroke-width="5"/>
<path d="M1833,8376 l60,0 l0,60 l-60,0 z" fill="green"/>
<path d="M1863,8406 l326.5,364" stroke="black" stroke-width="5"/>
<text font-size="196.116135138184" text-anchor="middle" x="4340.5" y="9381.640647298364">
0
</text>
<text font-size="196.116135138184" text-anchor="middle" x="262" y="8113.6406472983645">
1
</text>
<text font-size="196.116135138184" text-anchor="middle" x="1875.5" y="5153.6406472983645">
2
</text>
<text font-size="196.116135138184" text-anchor="middle" x="1679" y="1525.6406472983645">
3
</text>
<text font-size="196.116135138184" text-anchor="middle" x="2998.5" y="803.6406472983645">
4
</text>
<text font-size="196.116135138184" text-anchor="middle" x="6469.5" y="7551.6406472983645">
5
</text>
<text font-size="196.116135138184" text-anchor="middle" x="7165" y="1374.6406472983645">
6
</text>
<text font-size="196.116135138184" text-anchor="middle" x="1632" y="5893.6406472983645">
7
</text>
<text font-size="196.116135138184" text-anchor="middle" x="8952" y="7456.1406472983645">
8
</text>
<text font-size="196.116135138184" text-anchor="middle" x="5783" y="617.1406472983645">
9
</text>
<text font-size="196.116135138184" text-anchor="middle" x="3174.5" y="2589.6406472983645">
10
</text>
<text font-size="196.116135138184" text-anchor="middle" x="823" y="9515.640647298364">
11
</text>
<text font-size="196.116135138184" text-anchor="middle" x="8383.5" y="4828.6406472983645">
12
</text>
<text font-size="196.116135138184" text-anchor="middle" x="3632.5" y="8225.640647298364">
13
</text>
<text font-size="196.116135138184" text-anchor="middle" x="6701.5" y="8603.140647298364">
14
</text>
<text font-size="196.116135138184" text-anchor="middle" x="3781" y="4875.1406472983645">
15
</text>
<text font-size="196.116135138184" text-anchor="middle" x="4498.5" y="5412.1406472983645">
16
</text>
<text font-size="196.116135138184" text-anchor="middle" x="9582" y="9919.140647298364">
17
</text>
<text font-size="196.116135138184" text-anchor="middle" x="1874" y="725.1406472983645">
18
</text>
<text font-size="196.116135138184" text-anchor="middle" x="5676.5" y="7309.1406472983645">
19
</text>
<text font-size="196.116135138184" text-anchor="middle" x="7014" y="3207.6406472983645">
20
</text>
<text font-size="196.116135138184" text-anchor="middle" x="2133" y="2502.1406472983645">
21
</text>
<text font-size="196.116135138184" text-anchor="middle" x="7981.5" y="5595.6406472983645">
22
</text>
<text font-size="196.116135138184" text-anchor="middle" x="5147" y="8304.640647298364">
23
</text>
<text font-size="196.116135138184" text-anchor="middle" x="1470" y="8839.140647298364">
24
</text>
<text font-size="196.116135138184" text-anchor="middle" x="3093" y="4876.1406472983645">
25
</text>
<text font-size="196.116135138184" text-anchor="middle" x="7460.5" y="8150.6406472983645">
26
</text>
<text font-size="196.116135138184" text-anchor="middle" x="814" y="8489.640647298364">
27
</text>
<text font-size="196.116135138184" text-anchor="middle" x="6130.5" y="3419.6406472983645">
28
</text>
<text font-size="196.116135138184" text-anchor="middle" x="3418.5" y="9183.640647298364">
29
</text>
<text font-size="196.116135138184" text-anchor="middle" x="5916.5" y="5943.1406472983645">
30
</text>
<text font-size="196.116135138184" text-anchor="middle" x="6979.5" y="7768.1406472983645">
31
</text>
<text font-size="196.116135138184" text-anchor="middle" x="5198" y="5527.1406472983645">
32
</text>
<text font-size="196.116135138184" text-anchor="middle" x="6205.5" y="1493.1406472983645">
33
</text>
<text font-size="196.116135138184" text-anchor="middle" x="4225.5" y="1525.6406472983645">
34
</text>
<text font-size="196.116135138184" text-anchor="middle" x="290.5" y="3303.1406472983645">
35
</text>
<text font-size="196.116135138184" text-anchor="middle" x="4905" y="3526.6406472983645">
36
</text>
<text font-size="196.116135138184" text-anchor="middle" x="4884.5" y="2215.6406472983645">
37
</text>
<text font-size="196.116135138184" text-anchor="middle" x="8943" y="1723.1406472983645">
38
</text>
<text font-size="196.116135138184" text-anchor="middle" x="8704" y="3659.6406472983645">
39
</text>
<text font-size="196.116135138184" text-anchor="middle" x="4872" y="613.6406472983645">
40
</text>
<text font-size="196.116135138184" text-anchor="middle" x="8952.5" y="8314.640647298364">
41
</text>
<text font-size="196.116135138184" text-anchor="middle" x="1603.5" y="7042.1406472983645">
42
</text>
<text font-size="196.116135138184" text-anchor="middle" x="3707" y="7232.6406472983645">
43
</text>
<text font-size="196.116135138184" text-anchor="middle" x="7056.5" y="9406.640647298364">
44
</text>
<text font-size="196.116135138184" text-anchor="middle" x="2372.5" y="3363.6406472983645">
45
</text>
<text font-size="196.116135138184" text-anchor="middle" x="8636" y="9968.640647298364">
46
</text>
<text font-size="196.116135138184" text-anchor="middle" x="8112.5" y="6831.1406472983645">
47
</text>
<text font-size="196.116135138184" text-anchor="middle" x="2034.5" y="258.1406472983644">
48
</text>
<text font-size="196.116135138184" text-anchor="middle" x="818" y="4830.6406472983645">
49
</text>
<text font-size="196.116135138184" text-anchor="middle" x="6696.5" y="4594.6406472983645">
50
</text>
<text font-size="196.116135138184" text-anchor="middle" x="2189.5" y="8838.640647298364">
51
</text>
</svg>